<?xml version="1.0" encoding="utf-8"?>
<!-- Generator: Adobe Illustrator 24.0.2, SVG Export Plug-In . SVG Version: 6.00 Build 0)  -->
<svg version="1.1" id="Layer_1" xmlns="http://www.w3.org/2000/svg" xmlns:xlink="http://www.w3.org/1999/xlink" x="0px" y="0px"
	 viewBox="0 0 1046 487.43" style="enable-background:new 0 0 1046 487.43;" xml:space="preserve">
<style type="text/css">
	.st0{fill:#3F2A56;}
	.st1{fill:#3AC9D4;}
</style>
<g>
	<g>
		<path class="st0" d="M398.49,158.72c-5.1-5.21-7.65-12.02-7.65-20.44v-4.1c0-1.05,0.52-1.58,1.58-1.58h11.68
			c1.05,0,1.58,0.53,1.58,1.58v3.31c0,4.84,1.21,8.71,3.63,11.6c2.42,2.89,5.52,4.34,9.31,4.34c3.79,0,6.92-1.39,9.39-4.18
			c2.47-2.79,3.71-6.44,3.71-10.97c0-3.05-0.66-5.73-1.97-8.05c-1.32-2.31-3.05-4.39-5.21-6.23c-2.16-1.84-5.65-4.55-10.49-8.13
			c-5.37-3.99-9.57-7.41-12.62-10.25s-5.63-6.26-7.73-10.26c-2.1-4-3.16-8.68-3.16-14.04c0-8.52,2.52-15.28,7.57-20.27
			c5.05-5,11.62-7.5,19.72-7.5c8.42,0,15.17,2.68,20.28,8.05c5.1,5.36,7.65,12.41,7.65,21.14v3.94c0,1.05-0.53,1.58-1.58,1.58
			h-11.68c-1.05,0-1.58-0.52-1.58-1.58v-4.26c0-4.73-1.21-8.55-3.63-11.44c-2.42-2.89-5.57-4.34-9.47-4.34
			c-3.68,0-6.68,1.29-8.99,3.87c-2.31,2.58-3.47,6.18-3.47,10.81c0,4.21,1.16,7.76,3.47,10.65c2.31,2.89,6.79,6.76,13.41,11.6
			c6.31,4.73,11.07,8.57,14.28,11.52c3.21,2.95,5.68,6.18,7.41,9.7s2.6,7.7,2.6,12.54c0,8.84-2.58,15.91-7.73,21.22
			c-5.15,5.31-11.89,7.97-20.2,7.97C410.29,166.53,403.59,163.93,398.49,158.72z"/>
		<path class="st0" d="M467.52,158.64c-5.26-5.26-7.89-12.25-7.89-20.99V82.59c0-8.73,2.63-15.75,7.89-21.06
			c5.26-5.31,12.2-7.97,20.83-7.97c8.73,0,15.75,2.66,21.06,7.97c5.31,5.31,7.97,12.33,7.97,21.06v55.06
			c0,8.73-2.66,15.73-7.97,20.99c-5.31,5.26-12.33,7.89-21.06,7.89C479.72,166.53,472.77,163.9,467.52,158.64z M498.44,149.26
			c2.52-2.79,3.79-6.44,3.79-10.97V81.8c0-4.52-1.26-8.18-3.79-10.97c-2.53-2.79-5.89-4.18-10.1-4.18c-4.1,0-7.39,1.4-9.86,4.18
			c-2.47,2.79-3.71,6.44-3.71,10.97v56.49c0,4.52,1.24,8.18,3.71,10.97c2.47,2.79,5.76,4.18,9.86,4.18
			C492.55,153.44,495.92,152.04,498.44,149.26z"/>
		<path class="st0" d="M541.75,157.94c-5.21-5.73-7.81-13.28-7.81-22.64V56.4c0-1.05,0.52-1.58,1.58-1.58h11.99
			c1.05,0,1.58,0.53,1.58,1.58v80.47c0,4.95,1.24,8.94,3.71,11.99s5.71,4.58,9.7,4.58c4.1,0,7.39-1.53,9.86-4.58
			c2.47-3.05,3.71-7.05,3.71-11.99V56.4c0-1.05,0.52-1.58,1.58-1.58h11.99c1.05,0,1.58,0.53,1.58,1.58v78.89
			c0,9.36-2.63,16.91-7.89,22.64c-5.26,5.73-12.2,8.6-20.83,8.6S546.96,163.67,541.75,157.94z"/>
		<path class="st0" d="M664.74,56.4v9.94c0,1.05-0.53,1.58-1.58,1.58h-20.67c-0.42,0-0.63,0.21-0.63,0.63v95.14
			c0,1.05-0.53,1.58-1.58,1.58h-11.99c-1.05,0-1.58-0.52-1.58-1.58V68.55c0-0.42-0.21-0.63-0.63-0.63h-19.56
			c-1.05,0-1.58-0.52-1.58-1.58V56.4c0-1.05,0.52-1.58,1.58-1.58h56.64C664.22,54.82,664.74,55.35,664.74,56.4z"/>
		<path class="st0" d="M721.07,54.82h11.99c1.05,0,1.58,0.53,1.58,1.58v107.29c0,1.05-0.53,1.58-1.58,1.58h-11.99
			c-1.05,0-1.58-0.52-1.58-1.58v-46.55c0-0.42-0.21-0.63-0.63-0.63h-23.83c-0.42,0-0.63,0.21-0.63,0.63v46.55
			c0,1.05-0.53,1.58-1.58,1.58h-11.99c-1.05,0-1.58-0.52-1.58-1.58V56.4c0-1.05,0.52-1.58,1.58-1.58h11.99
			c1.05,0,1.58,0.53,1.58,1.58v46.39c0,0.42,0.21,0.63,0.63,0.63h23.83c0.42,0,0.63-0.21,0.63-0.63V56.4
			C719.49,55.35,720.02,54.82,721.07,54.82z"/>
		<path class="st0" d="M767.46,161.61c-2.89-3.04-4.33-6.96-4.33-11.77v-25.56c0-4.73,1.44-8.63,4.33-11.71
			c2.89-3.08,6.62-4.62,11.2-4.62c4.58,0,8.31,1.54,11.2,4.62c2.89,3.08,4.33,6.98,4.33,11.71v25.56c0,4.8-1.45,8.73-4.33,11.77
			c-2.89,3.04-6.63,4.56-11.2,4.56C774.08,166.17,770.35,164.65,767.46,161.61z M787.44,159.36c2.25-2.44,3.38-5.61,3.38-9.51
			v-25.56c0-3.9-1.13-7.07-3.38-9.51c-2.25-2.44-5.18-3.66-8.78-3.66c-3.6,0-6.53,1.22-8.78,3.66c-2.25,2.44-3.38,5.61-3.38,9.51
			v25.56c0,3.9,1.13,7.08,3.38,9.51c2.25,2.44,5.18,3.66,8.78,3.66C782.26,163.02,785.19,161.8,787.44,159.36z"/>
		<path class="st0" d="M816.72,92.14c-1.28,2.44-1.91,6.25-1.91,11.43v4.84c0,0.3,0.15,0.45,0.45,0.45h9.91
			c0.75,0,1.13,0.38,1.13,1.13v0.68c0,0.75-0.38,1.13-1.13,1.13h-9.91c-0.3,0-0.45,0.15-0.45,0.45v51.91c0,0.75-0.38,1.13-1.13,1.13
			h-1.13c-0.75,0-1.13-0.37-1.13-1.13v-51.91c0-0.3-0.15-0.45-0.45-0.45h-5.07c-0.75,0-1.13-0.37-1.13-1.13v-0.68
			c0-0.75,0.37-1.13,1.13-1.13h5.07c0.3,0,0.45-0.15,0.45-0.45v-4.95c0-6.08,0.92-10.6,2.76-13.57c1.84-2.96,5.05-4.45,9.63-4.45
			h1.69c0.75,0,1.13,0.38,1.13,1.13v0.79c0,0.75-0.38,1.13-1.13,1.13h-1.58C820.39,88.48,817.99,89.7,816.72,92.14z"/>
		<path class="st0" d="M398.49,292.27c-5.1-5.21-7.65-12.02-7.65-20.44v-4.1c0-1.05,0.52-1.58,1.58-1.58h11.68
			c1.05,0,1.58,0.53,1.58,1.58v3.31c0,4.84,1.21,8.71,3.63,11.6c2.42,2.89,5.52,4.34,9.31,4.34c3.79,0,6.92-1.39,9.39-4.18
			c2.47-2.79,3.71-6.44,3.71-10.97c0-3.05-0.66-5.73-1.97-8.05c-1.32-2.31-3.05-4.39-5.21-6.23c-2.16-1.84-5.65-4.55-10.49-8.13
			c-5.37-3.99-9.57-7.41-12.62-10.25c-3.05-2.84-5.63-6.26-7.73-10.26c-2.1-4-3.16-8.68-3.16-14.04c0-8.52,2.52-15.28,7.57-20.27
			c5.05-5,11.62-7.5,19.72-7.5c8.42,0,15.17,2.68,20.28,8.05c5.1,5.36,7.65,12.41,7.65,21.14v3.94c0,1.05-0.53,1.58-1.58,1.58
			h-11.68c-1.05,0-1.58-0.52-1.58-1.58v-4.26c0-4.73-1.21-8.55-3.63-11.44c-2.42-2.89-5.57-4.34-9.47-4.34
			c-3.68,0-6.68,1.29-8.99,3.87c-2.31,2.58-3.47,6.18-3.47,10.81c0,4.21,1.16,7.76,3.47,10.65c2.31,2.89,6.79,6.76,13.41,11.6
			c6.31,4.73,11.07,8.57,14.28,11.52c3.21,2.95,5.68,6.18,7.41,9.7c1.74,3.52,2.6,7.7,2.6,12.54c0,8.84-2.58,15.91-7.73,21.22
			c-5.15,5.31-11.89,7.97-20.2,7.97C410.29,300.08,403.59,297.47,398.49,292.27z"/>
		<path class="st0" d="M467.44,292.27c-5.21-5.21-7.81-12.12-7.81-20.75V215.5c0-8.63,2.6-15.52,7.81-20.67
			c5.21-5.15,12.07-7.73,20.59-7.73c8.63,0,15.54,2.58,20.75,7.73c5.21,5.15,7.81,12.05,7.81,20.67v2.52c0,1.05-0.53,1.58-1.58,1.58
			l-11.99,0.63c-1.05,0-1.58-0.52-1.58-1.58v-4.1c0-4.31-1.24-7.78-3.71-10.41c-2.47-2.63-5.71-3.94-9.7-3.94
			c-4,0-7.2,1.32-9.62,3.94c-2.42,2.63-3.63,6.1-3.63,10.41v58.06c0,4.31,1.21,7.79,3.63,10.41c2.42,2.63,5.63,3.94,9.62,3.94
			c4,0,7.23-1.31,9.7-3.94c2.47-2.63,3.71-6.1,3.71-10.41v-4.1c0-1.05,0.52-1.58,1.58-1.58l11.99,0.63c1.05,0,1.58,0.53,1.58,1.58
			v2.37c0,8.63-2.6,15.54-7.81,20.75c-5.21,5.21-12.12,7.81-20.75,7.81C479.51,300.08,472.64,297.47,467.44,292.27z"/>
		<path class="st0" d="M538.83,292.19c-5.26-5.26-7.89-12.25-7.89-20.99v-55.06c0-8.73,2.63-15.75,7.89-21.06
			c5.26-5.31,12.2-7.97,20.83-7.97c8.73,0,15.75,2.66,21.06,7.97c5.31,5.31,7.97,12.33,7.97,21.06v55.06
			c0,8.73-2.66,15.73-7.97,20.99c-5.31,5.26-12.33,7.89-21.06,7.89C551.03,300.08,544.09,297.45,538.83,292.19z M569.76,282.8
			c2.52-2.79,3.79-6.44,3.79-10.97v-56.49c0-4.52-1.26-8.18-3.79-10.97c-2.53-2.79-5.89-4.18-10.1-4.18c-4.1,0-7.39,1.4-9.86,4.18
			c-2.47,2.79-3.71,6.44-3.71,10.97v56.49c0,4.52,1.24,8.18,3.71,10.97c2.47,2.79,5.76,4.18,9.86,4.18
			C563.87,286.98,567.23,285.59,569.76,282.8z"/>
		<path class="st0" d="M659.21,189.94v9.94c0,1.05-0.53,1.58-1.58,1.58h-20.67c-0.42,0-0.63,0.21-0.63,0.63v95.14
			c0,1.05-0.53,1.58-1.58,1.58h-11.99c-1.05,0-1.58-0.52-1.58-1.58v-95.14c0-0.42-0.21-0.63-0.63-0.63h-19.56
			c-1.05,0-1.58-0.52-1.58-1.58v-9.94c0-1.05,0.52-1.58,1.58-1.58h56.64C658.69,188.36,659.21,188.89,659.21,189.94z"/>
		<path class="st0" d="M672.78,297.23V189.94c0-1.05,0.52-1.58,1.58-1.58h11.99c1.05,0,1.58,0.53,1.58,1.58v95.14
			c0,0.42,0.21,0.63,0.63,0.63h35.34c1.05,0,1.58,0.53,1.58,1.58v9.94c0,1.05-0.53,1.58-1.58,1.58h-49.54
			C673.31,298.81,672.78,298.29,672.78,297.23z"/>
		<path class="st0" d="M783.86,297.39l-3.47-18.14c0-0.21-0.08-0.37-0.24-0.47s-0.34-0.16-0.55-0.16h-25.72
			c-0.21,0-0.39,0.05-0.55,0.16c-0.16,0.1-0.24,0.26-0.24,0.47l-3.31,18.14c-0.1,0.95-0.68,1.42-1.74,1.42h-11.99
			c-0.53,0-0.92-0.16-1.18-0.47c-0.26-0.31-0.34-0.74-0.24-1.26l23.51-107.29c0.21-0.95,0.79-1.42,1.74-1.42h14.04
			c1.05,0,1.63,0.47,1.74,1.42l23.67,107.29v0.31c0,0.95-0.47,1.42-1.42,1.42h-12.31C784.65,298.81,784.07,298.34,783.86,297.39z
			 M756.25,266.63h20.99c0.31,0,0.47-0.21,0.47-0.63l-10.73-56.01c-0.1-0.21-0.21-0.32-0.31-0.32s-0.21,0.11-0.32,0.32l-10.57,56.01
			C755.77,266.42,755.93,266.63,756.25,266.63z"/>
		<path class="st0" d="M857.23,188.36h11.83c1.05,0,1.58,0.53,1.58,1.58v107.29c0,1.05-0.53,1.58-1.58,1.58h-13.57
			c-0.84,0-1.42-0.42-1.74-1.26l-26.82-72.11c-0.1-0.21-0.26-0.29-0.47-0.24c-0.21,0.05-0.31,0.18-0.31,0.39l0.16,71.63
			c0,1.05-0.53,1.58-1.58,1.58h-11.99c-1.05,0-1.58-0.52-1.58-1.58V189.94c0-1.05,0.52-1.58,1.58-1.58h13.41
			c0.84,0,1.42,0.42,1.74,1.26l26.98,72.11c0.1,0.32,0.26,0.45,0.47,0.4c0.21-0.05,0.32-0.24,0.32-0.55v-71.63
			C855.65,188.89,856.17,188.36,857.23,188.36z"/>
		<path class="st0" d="M889,297.23V189.94c0-1.05,0.52-1.58,1.58-1.58h25.88c8.73,0,15.67,2.68,20.83,8.05
			c5.15,5.36,7.73,12.62,7.73,21.77v50.81c0,9.15-2.58,16.41-7.73,21.77c-5.15,5.36-12.1,8.05-20.83,8.05h-25.88
			C889.53,298.81,889,298.29,889,297.23z M904.78,285.72l11.52-0.16c3.99,0,7.2-1.55,9.62-4.65c2.42-3.1,3.68-7.34,3.79-12.7v-49.23
			c0-5.36-1.21-9.62-3.63-12.78c-2.42-3.16-5.68-4.73-9.78-4.73h-11.52c-0.42,0-0.63,0.21-0.63,0.63v82.99
			C904.15,285.51,904.36,285.72,904.78,285.72z"/>
	</g>
	<g>
		<path class="st1" d="M445.9,335h-35.5c-0.42,0-0.63,0.21-0.63,0.63v34.24c0,0.42,0.21,0.63,0.63,0.63h21.77
			c1.05,0,1.58,0.53,1.58,1.58v9.94c0,1.05-0.53,1.58-1.58,1.58H410.4c-0.42,0-0.63,0.21-0.63,0.63v34.4c0,0.42,0.21,0.63,0.63,0.63
			h35.5c1.05,0,1.58,0.53,1.58,1.58v9.94c0,1.05-0.53,1.58-1.58,1.58h-49.7c-1.05,0-1.58-0.52-1.58-1.58V323.48
			c0-1.05,0.52-1.58,1.58-1.58h49.7c1.05,0,1.58,0.53,1.58,1.58v9.94C447.48,334.48,446.95,335,445.9,335z"/>
		<path class="st1" d="M508.86,321.91h11.83c1.05,0,1.58,0.53,1.58,1.58v107.29c0,1.05-0.53,1.58-1.58,1.58h-13.57
			c-0.84,0-1.42-0.42-1.74-1.26l-26.82-72.11c-0.1-0.21-0.26-0.29-0.47-0.24c-0.21,0.05-0.31,0.18-0.31,0.39l0.16,71.63
			c0,1.05-0.53,1.58-1.58,1.58h-11.99c-1.05,0-1.58-0.52-1.58-1.58V323.48c0-1.05,0.52-1.58,1.58-1.58h13.41
			c0.84,0,1.42,0.42,1.74,1.26l26.98,72.11c0.1,0.32,0.26,0.45,0.47,0.4c0.21-0.05,0.32-0.24,0.32-0.55v-71.63
			C507.28,322.43,507.8,321.91,508.86,321.91z"/>
		<path class="st1" d="M596.58,323.48v9.94c0,1.05-0.53,1.58-1.58,1.58h-20.67c-0.42,0-0.63,0.21-0.63,0.63v95.14
			c0,1.05-0.53,1.58-1.58,1.58h-11.99c-1.05,0-1.58-0.52-1.58-1.58v-95.14c0-0.42-0.21-0.63-0.63-0.63h-19.56
			c-1.05,0-1.58-0.52-1.58-1.58v-9.94c0-1.05,0.52-1.58,1.58-1.58H595C596.05,321.91,596.58,322.43,596.58,323.48z"/>
		<path class="st1" d="M662.38,335h-35.5c-0.42,0-0.63,0.21-0.63,0.63v34.24c0,0.42,0.21,0.63,0.63,0.63h21.77
			c1.05,0,1.58,0.53,1.58,1.58v9.94c0,1.05-0.53,1.58-1.58,1.58h-21.77c-0.42,0-0.63,0.21-0.63,0.63v34.4
			c0,0.42,0.21,0.63,0.63,0.63h35.5c1.05,0,1.58,0.53,1.58,1.58v9.94c0,1.05-0.53,1.58-1.58,1.58h-49.7c-1.05,0-1.58-0.52-1.58-1.58
			V323.48c0-1.05,0.52-1.58,1.58-1.58h49.7c1.05,0,1.58,0.53,1.58,1.58v9.94C663.96,334.48,663.43,335,662.38,335z"/>
		<path class="st1" d="M721.23,431.09l-14.52-47.02c-0.1-0.31-0.32-0.47-0.63-0.47h-11.04c-0.42,0-0.63,0.21-0.63,0.63v46.55
			c0,1.05-0.53,1.58-1.58,1.58h-11.99c-1.05,0-1.58-0.52-1.58-1.58V323.48c0-1.05,0.52-1.58,1.58-1.58h28.24
			c5.36,0,10.1,1.32,14.2,3.94c4.1,2.63,7.28,6.34,9.55,11.12c2.26,4.79,3.39,10.23,3.39,16.33c0,6.63-1.37,12.39-4.1,17.28
			c-2.74,4.89-6.47,8.44-11.2,10.65c-0.31,0.32-0.42,0.63-0.31,0.95l16.09,48.44l0.16,0.63c0,0.74-0.47,1.1-1.42,1.1h-12.31
			C722.17,432.36,721.54,431.94,721.23,431.09z M694.41,335.63v35.34c0,0.42,0.21,0.63,0.63,0.63h11.68c4.31,0,7.78-1.66,10.41-4.97
			c2.63-3.31,3.94-7.7,3.94-13.17c0-5.68-1.32-10.18-3.94-13.49c-2.63-3.31-6.1-4.97-10.41-4.97h-11.68
			C694.62,335,694.41,335.21,694.41,335.63z"/>
		<path class="st1" d="M800.04,330.51c5,5.84,7.5,13.49,7.5,22.96c0,9.26-2.42,16.72-7.26,22.4c-4.84,5.68-11.2,8.52-19.09,8.52
			h-14.83c-0.42,0-0.63,0.21-0.63,0.63v45.76c0,1.05-0.53,1.58-1.58,1.58h-11.99c-1.05,0-1.58-0.52-1.58-1.58V323.33
			c0-1.05,0.52-1.58,1.58-1.58h28.24C788.49,321.75,795.04,324.67,800.04,330.51z M788.44,367.27c2.63-3.31,3.94-7.81,3.94-13.49
			c0-5.78-1.32-10.39-3.94-13.81c-2.63-3.42-6.1-5.13-10.41-5.13h-11.68c-0.42,0-0.63,0.21-0.63,0.63v36.13
			c0,0.42,0.21,0.63,0.63,0.63h11.68C782.34,372.24,785.81,370.58,788.44,367.27z"/>
		<path class="st1" d="M862.66,431.09l-14.52-47.02c-0.1-0.31-0.32-0.47-0.63-0.47h-11.04c-0.42,0-0.63,0.21-0.63,0.63v46.55
			c0,1.05-0.53,1.58-1.58,1.58h-11.99c-1.05,0-1.58-0.52-1.58-1.58V323.48c0-1.05,0.52-1.58,1.58-1.58h28.24
			c5.36,0,10.1,1.32,14.2,3.94c4.1,2.63,7.28,6.34,9.55,11.12c2.26,4.79,3.39,10.23,3.39,16.33c0,6.63-1.37,12.39-4.1,17.28
			c-2.74,4.89-6.47,8.44-11.2,10.65c-0.31,0.32-0.42,0.63-0.31,0.95l16.09,48.44l0.16,0.63c0,0.74-0.47,1.1-1.42,1.1h-12.31
			C863.6,432.36,862.97,431.94,862.66,431.09z M835.84,335.63v35.34c0,0.42,0.21,0.63,0.63,0.63h11.68c4.31,0,7.78-1.66,10.41-4.97
			c2.63-3.31,3.94-7.7,3.94-13.17c0-5.68-1.32-10.18-3.94-13.49c-2.63-3.31-6.1-4.97-10.41-4.97h-11.68
			C836.05,335,835.84,335.21,835.84,335.63z"/>
		<path class="st1" d="M892.16,430.78V323.48c0-1.05,0.52-1.58,1.58-1.58h11.99c1.05,0,1.58,0.53,1.58,1.58v107.29
			c0,1.05-0.53,1.58-1.58,1.58h-11.99C892.69,432.36,892.16,431.83,892.16,430.78z"/>
		<path class="st1" d="M930.74,425.81c-5.1-5.21-7.65-12.02-7.65-20.44v-4.1c0-1.05,0.52-1.58,1.58-1.58h11.68
			c1.05,0,1.58,0.53,1.58,1.58v3.31c0,4.84,1.21,8.71,3.63,11.6c2.42,2.89,5.52,4.34,9.31,4.34s6.92-1.39,9.39-4.18
			c2.47-2.79,3.71-6.44,3.71-10.97c0-3.05-0.66-5.73-1.97-8.05c-1.32-2.31-3.05-4.39-5.21-6.23c-2.16-1.84-5.65-4.55-10.49-8.13
			c-5.37-3.99-9.57-7.41-12.62-10.25c-3.05-2.84-5.63-6.26-7.73-10.26c-2.1-4-3.16-8.68-3.16-14.04c0-8.52,2.52-15.28,7.57-20.27
			c5.05-5,11.62-7.5,19.72-7.5c8.42,0,15.17,2.68,20.28,8.05c5.1,5.36,7.65,12.41,7.65,21.14v3.94c0,1.05-0.53,1.58-1.58,1.58
			h-11.68c-1.05,0-1.58-0.52-1.58-1.58v-4.26c0-4.73-1.21-8.55-3.63-11.44c-2.42-2.89-5.57-4.34-9.47-4.34
			c-3.68,0-6.68,1.29-8.99,3.87c-2.31,2.58-3.47,6.18-3.47,10.81c0,4.21,1.16,7.76,3.47,10.65c2.31,2.89,6.79,6.76,13.41,11.6
			c6.31,4.73,11.07,8.57,14.28,11.52c3.21,2.95,5.68,6.18,7.41,9.7s2.6,7.7,2.6,12.54c0,8.84-2.58,15.91-7.73,21.22
			c-5.15,5.31-11.89,7.97-20.2,7.97C942.54,433.62,935.84,431.02,930.74,425.81z"/>
		<path class="st1" d="M1044.42,335h-35.5c-0.42,0-0.63,0.21-0.63,0.63v34.24c0,0.42,0.21,0.63,0.63,0.63h21.77
			c1.05,0,1.58,0.53,1.58,1.58v9.94c0,1.05-0.53,1.58-1.58,1.58h-21.77c-0.42,0-0.63,0.21-0.63,0.63v34.4
			c0,0.42,0.21,0.63,0.63,0.63h35.5c1.05,0,1.58,0.53,1.58,1.58v9.94c0,1.05-0.53,1.58-1.58,1.58h-49.7c-1.05,0-1.58-0.52-1.58-1.58
			V323.48c0-1.05,0.52-1.58,1.58-1.58h49.7c1.05,0,1.58,0.53,1.58,1.58v9.94C1046,334.48,1045.47,335,1044.42,335z"/>
	</g>
	<g>
		<path class="st0" d="M123.11,172.69c-9.14-9.31-16.57-18.04-22.26-26.16c-9.25,13.05-13.89,26.1-13.89,39.04
			c0,9.77,3.04,16.26,9.11,19.4c6.07,3.17,15.07,3.94,27.04,2.34c7.43-1.01,17.41-2.76,29.97-5.23L123.11,172.69z"/>
		<path class="st0" d="M102.85,336.69c-11.62-15.32-18.56-29.55-20.86-42.63c-4.08,0.49-8.02,0.8-11.76,1.05
			c-18.21,1.12-33.49-2.9-45.84-12c-12.35-9.14-18.52-25.68-18.52-49.57c0-2.72,0.07-5.44,0.24-8.16c-1.57-0.73-2.9-0.84-4.05-0.35
			C0.7,225.61,0,226.87,0,228.82v12.94c0,24.66,6.35,49.99,19.08,75.95c8.55,17.44,19.57,34.35,33.02,50.71l0.06-0.04l21.91-12.66
			c1.95-1.12,3.63-1.4,5.03-0.8c1.36,0.59,2.06,1.85,2.06,3.8v8.83c0,15.66,7.22,24.7,21.74,27.11
			c12.77,2.13,29.46-2.18,50.19-13.03C132.36,368.58,115.61,353.58,102.85,336.69z"/>
		<path class="st0" d="M149.24,30C121.06,13.71,96.18,4.05,74.62,1.01C53.1-2.02,36.25,1.78,24.11,12.38
			C11.93,22.99,5.86,40.05,5.86,63.56c0,23.9,6.18,47.55,18.52,70.92c2,3.75,5.16,8.27,7.62,12.15
			c11.21-19.22,25.41-37.58,42.62-55.03c21.56-21.84,46.43-40.92,74.62-57.22l3.84-2.13C151.82,31.54,150.54,30.73,149.24,30z"/>
		<path class="st0" d="M306.16,422.06c0,36.81-13.54,58.09-40.54,63.84c-27.04,5.76-63.67-4.74-109.89-31.43l-2.65-1.53v-71.31
			c2.76,1.74,5.62,3.45,8.51,5.13c20.76,12,36.25,16.54,46.43,13.61c10.19-2.93,15.28-10.88,15.28-23.79
			c0-9.42-3.14-19.15-9.42-29.24c-1.92-3.1-4.08-6.27-6.48-9.51c0,0,0-0.01-0.01-0.01c-5.27-7.19-11.62-14.62-19.05-22.29
			c-8.13-8.37-19.88-19.92-35.27-34.61v-78.84l25.57,24.14c27.8,26.23,49.64,47.86,65.52,64.85c10.79,11.55,20.85,24.49,30.18,38.75
			c0,0.01,0.01,0.01,0.01,0.02c0.01,0.01,0.02,0.03,0.03,0.04c1.42,2.18,2.83,4.38,4.21,6.62c2.9,4.64,5.72,9.38,8.44,14.3
			C299.78,373.6,306.16,397.36,306.16,422.06z"/>
		<path class="st0" d="M303.23,245.22v8.83c0,1.95-0.7,3.24-2.06,3.8c-1.4,0.59-3.04,0.31-4.99-0.84l-67.61-39
			c-1.95-1.12-3.63-2.76-4.99-4.95c-1.36-2.16-2.06-4.19-2.06-6.17v-4.68c0-4.27-0.44-8.67-1.36-13.14
			c-0.01-0.06-0.02-0.12-0.04-0.19c-2.62-12.66-8.9-26.13-18.87-40.4c-12.07-17.3-28.12-32.27-48.18-44.93V32.27
			c28.26,16.71,53.52,36.56,75.81,59.55c8.17,8.44,15.7,16.99,22.61,25.75c0.01,0.01,0.01,0.02,0.02,0.02
			c12.83,16.18,23.5,32.92,32.01,50.18c6.84,13.85,11.89,27.52,15.18,40.96c0,0,0,0.04,0.03,0.07c0.04,0.17,0.08,0.34,0.12,0.5
			c0,0,0,0,0,0C301.77,221.44,303.23,233.41,303.23,245.22z"/>
	</g>
	<g>
		<path class="st1" d="M298.78,208.74c0.02,0.19,0.05,0.37,0.07,0.56c0,0,0,0,0,0c2.92,12.14,4.38,24.11,4.38,35.91v8.83
			c0,1.95-0.7,3.24-2.06,3.8c-1.4,0.59-3.04,0.31-4.99-0.84l-67.61-39c-1.95-1.12-3.63-2.76-4.99-4.95
			c-1.36-2.16-2.06-4.19-2.06-6.17v-4.68c0-4.27-0.44-8.67-1.36-13.14c-11.76,1.87-26.05,4.29-41.47,7.57
			c-9.45,2.06-18.05,3.89-25.62,5.43l25.57,24.14c27.8,26.23,49.64,47.86,65.52,64.85c10.79,11.55,20.85,24.49,30.18,38.75
			c0,0.01,0.01,0.01,0.01,0.02c0.01,0.01,0.02,0.03,0.03,0.04c1.46,2.15,2.89,4.34,4.27,6.56c18.35-30.42,27.56-60.81,27.56-91.19
			C306.22,229.85,303.74,217.67,298.78,208.74z"/>
		<path class="st1" d="M213.89,347.33c-1.92-3.1-4.08-6.27-6.48-9.51c-10.19,14.35-25.45,27.34-45.76,39.04l-8.56,4.76
			c2.76,1.74,5.62,3.45,8.51,5.13c20.76,12,36.25,16.54,46.43,13.61c10.19-2.93,15.28-10.88,15.28-23.79
			C223.31,367.15,220.17,357.41,213.89,347.33z"/>
		<path class="st1" d="M283.52,17.16C270.41,5.72,252.2,1.46,228.89,4.32c-22.29,2.76-47.55,12.07-75.81,27.95
			c28.26,16.71,53.52,36.56,75.81,59.55c8.17,8.44,15.7,16.99,22.61,25.75c0.01,0.01,0.01,0.02,0.02,0.02l44.67-25.77
			c1.95-1.12,3.59-2.76,4.99-4.92c1.36-2.16,2.06-4.22,2.06-6.17V71.9C303.23,46.82,296.68,28.57,283.52,17.16z"/>
		<path class="st1" d="M100.86,146.52c-9.25,13.05-13.89,26.1-13.89,39.04c0,9.77,3.04,16.26,9.11,19.4
			c6.07,3.17,15.07,3.94,27.04,2.34c7.43-1.01,17.41-2.76,29.97-5.23v78.84c-4.99,0.98-10.4,2.09-16.15,3.31
			c-20.86,4.88-39.18,8.16-54.95,9.84c-4.08,0.49-8.02,0.8-11.76,1.05c-18.21,1.12-33.49-2.9-45.84-12
			c-12.35-9.14-18.52-25.68-18.52-49.57c0-2.72,0.07-5.44,0.24-8.16c1.26-20.9,7.22-42.25,18-64.05c2.34-4.71,4.81-9.38,7.5-13.99
			c0.13-0.23,0.26-0.46,0.4-0.68c11.21-19.22,25.41-37.58,42.62-55.03c21.56-21.84,46.43-40.92,74.62-57.22l3.84-2.13v71.27
			l-7.36,4.01c-18.42,10.64-32.79,22.85-43.19,36.7C101.97,145.02,101.41,145.76,100.86,146.52z"/>
		<path class="st1" d="M153.08,381.62v71.31c-30.28,17.2-56.74,27.47-79.56,30.96c-23.51,3.56-41.65-0.24-54.39-11.51
			C6.4,461.11,0.05,443.14,0.05,418.48v-12.94c0-1.95,0.7-4.01,2.06-6.17c1.36-2.16,3.04-3.8,4.99-4.95l45.01-25.99l0.06-0.04
			l21.91-12.66c1.95-1.12,3.63-1.4,5.03-0.8c1.36,0.59,2.06,1.85,2.06,3.8v8.83c0,15.66,7.22,24.7,21.74,27.11
			C115.67,396.78,132.36,392.47,153.08,381.62z"/>
	</g>
</g>
</svg>
